<?xml version="1.0" encoding="UTF-8"?>
<svg id="Layer_2" data-name="Layer 2" xmlns="http://www.w3.org/2000/svg" viewBox="0 0 578.69 261.78">
  <defs>
    <style>
      .cls-1 {
        fill: #e42329;
      }

      .cls-1, .cls-2 {
        stroke-width: 0px;
      }

      .cls-2 {
        fill: #f9fbfb;
      }
    </style>
  </defs>
  <g id="Layer_1-2" data-name="Layer 1">
    <g>
      <path class="cls-2" d="M508.67,13.05c.2-.27.41-.54.61-.8,1.21-.87,2.37-1.79,3.62-2.59,8.31-5.32,18.77-2.95,23.91,5.41,4.91,7.99,2.21,18.76-5.88,23.45-8.38,4.86-19.7,1.86-24.04-6.69-3.3-6.49-1.8-12.79,1.78-18.77Z"/>
      <path class="cls-2" d="M7.73,207.84c-5.84-6.34-7.19-14.16-7.6-22.38-.89-17.83,2.78-34.86,8.72-51.53.21-.6.09-1.32.12-1.98,4.03-5.26,6.38-11.5,10.31-16.9,11.99-16.48,28.24-23.63,48.2-23.48,6.87.05,13.62.81,19.89,3.82,13.28,6.37,17.73,18.39,19.22,31.73,1.7,15.27.46,30.58-1.1,45.83-.17,1.7.06,3.82-2.78,3.8-10.1-.05-20.2-.02-30.32-.02,6.89-14.52,5.98-29.83,5.85-44.66-.13-14.56-12.98-16.19-24.36-12.44-3.28,1.08-6.17,3.23-8.18,6.24-2.03,1.44-3.38,3.41-4.36,5.66l.29.07s-.3-.04-.3-.04c-8.92,14.19-12.85,29.56-10.72,46.28.62,4.9,2.77,9.12,7.08,11.95h0c.87,1.38,2.2,2.04,3.76,2.3l.23-.14s-.25.11-.25.11c1.2,1.14,2.65,1.59,4.27,1.57.79.09,1.59.19,2.38.28,1.8,1.27,3.86.77,5.81.77,54.19.02,108.38.01,162.58,0,1.65,0,3.31-.17,4.96-.26.7,0,1.4,0,2.1,0,2.65.02,5.3.05,7.95.07.14.29.36.4.68.34-.83,2.98-1.66,5.97-2.49,8.95-.15.5-.3.99-.44,1.49-1.3,3.57-2.95,7.06-3.79,10.74-.94,4.1-3.12,4.92-7.05,4.91-54.21-.14-108.42-.14-162.63-.07-12.86.02-25.58-.59-37.74-5.38,0,0-.04,0-.04,0-1.44-.86-2.89-1.71-4.33-2.57l-.12-.07c-1.46-1.17-2.92-2.33-4.38-3.5,0,0,.04.06.04.06-.5-.52-.99-1.05-1.49-1.57Z"/>
      <path class="cls-2" d="M273.46,51.95c.08.27.26.36.53.27,11.77,7.83,15.37,19.81,16.7,32.92,1.96,19.33-1.1,38.44-2.59,57.61-.67,8.64-2.37,7.87,7.27,7.89,4.65,0,9.3-.12,13.95.05,2.6.1,3.5-.97,3.71-3.41,1.42-16.71,2.95-33.4,4.37-50.11.36-4.23-1.69-8.09-2.24-12.19l.26-.11-.07-.27c2.22-.68,4.53-1.14,6.47-2.53,7.38-2.69,14.75-5.39,22.12-8.09,1.6-.59,3.18-2,4.82-.08-.16.98-.37,1.95-.46,2.93-2.86,31.62-5.8,63.23-8.47,94.87-.35,4.11-1.67,5.12-5.68,5.11-48.56-.14-97.12-.11-145.67-.08-20.95.01-41.9.11-62.85.17-1.95-6.97.76-13.67,1.45-20.43,4.25-41.16,8.91-82.28,13.52-123.4.42-3.75-.05-7.36-1.15-10.82-.95-3.02.05-4.12,2.78-5.03,8.83-2.96,17.64-5.99,26.35-9.3,3.35-1.27,4.06-.61,3.67,2.8-2.09,18.18-4,36.38-6.08,54.55-3.08,26.94-6.21,53.87-9.45,80.8-.4,3.33.04,4.88,3.91,4.71,6.98-.3,13.98-.32,20.96-.1,3.43.11,3.45-1.05,3.26-4.06-1.79-27.8,2.75-54.26,19.71-77.09,14.42-19.41,38.76-26.81,62.03-20.25,1.11.31,2.24.57,3.37.85,1.17.61,2.35,1.22,3.52,1.83ZM245.38,150.44v.02c3.16,0,6.33-.15,9.47.05,2.85.18,3.65-1.04,3.87-3.71,1.13-14.08,2.52-28.13,3.65-42.21.45-5.62.83-11.28.17-16.93-1.1-9.41-5.19-12.97-14.54-13.74-8.99-.75-15.57,3.25-20.52,9.97-9.7,13.18-13.79,28.39-13.41,44.53.35,14.46,8.3,21.61,22.82,22.02,2.82.08,5.65.01,8.48.01Z"/>
      <path class="cls-2" d="M250.23,33.99c-9.46-.08-16.94-7.8-16.82-17.36C233.51,7.27,240.92,0,250.35,0c9.63,0,17.22,7.54,17.12,17.01-.09,9.48-7.8,17.06-17.25,16.98Z"/>
      <path class="cls-2" d="M55.85,230.8c2.64-1.92,5.8-2.39,8.85-3.14,1.95.1,3.9.2,5.85.3,0,0,0,0,0,0,9.74,4.43,13.82,10.51,12.77,19.02-.91,7.42-6.48,13.32-13.73,14.55-7.42,1.25-14.7-2.24-18.08-8.67-3.52-6.7-2.32-14.96,2.89-20.11.57-.56.97-1.3,1.45-1.96Z"/>
      <path class="cls-2" d="M398.45,72.96c-1.39,19.22-2.71,38.46-4.19,57.67-3.11,40.46-6.39,80.9-9.35,121.37-.35,4.77-1.83,6.08-6.49,5.86-8.96-.42-17.96-.18-26.94-.22,0-.17-.06-.38.02-.49,7.75-10.59,5.36-23.2,6.41-34.93,3.6-40.22,6.38-80.52,9.56-120.78.36-4.55.04-8.93-1.17-13.31-.4-1.45-1.46-3.28,1.06-4.12,10.43-3.49,20.33-8.48,31.09-11.06Z"/>
      <path class="cls-2" d="M435.41,66.24c.34-.09.67-.18,1.01-.28,2.05.1,2.98-.91,2.89-2.93,0,0,.06-.07.06-.07.31-.29.63-.58.94-.87,0,0,.12-.11.12-.11.29-.28.58-.57.87-.85.43-.37.85-.73,1.28-1.1.54-.4,1.09-.8,1.63-1.2,10.75-9.45,23.76-11.65,37.4-11.23,7.05.22,14.06,1.2,20.45,4.8,12.44,7.03,16.06,18.96,17.37,31.85,1.29,12.76.52,25.59-.69,38.35-.75,7.95-1.45,15.9-2.33,23.83-.31,2.83.05,4.35,3.48,4.23,6.48-.23,12.97-.17,19.46-.03,2.56.05,3.47-.86,3.68-3.39,1.37-16.74,2.86-33.47,4.32-50.2.27-3.07-.7-5.94-1.54-8.79-.7-2.39-.26-3.58,2.23-4.47,9.07-3.26,18.06-6.75,27.08-10.15,1.55-.59,3.26-1.64,3.52,1.28-1.89,20.7-3.79,41.41-5.68,62.11-1.06,11.6-2.26,23.19-3.11,34.8-.27,3.72-1.41,5.03-5.35,4.97-15.48-.24-30.96.02-46.43-.18-3.7-.05-4.71,1.04-4.93,4.73-1.42,23.92-3.2,47.81-4.68,71.73-.22,3.55-1.19,4.89-4.97,4.78-9.46-.28-18.94-.09-29.15-.09,7.5-10.35,5.11-22.05,6.36-33.04,1.61-14.04,2.16-28.2,3.46-42.28.41-4.41-.42-6.07-5.32-5.86-10.47.45-20.97.36-31.4-1.02-17.47-2.3-30.74-9.64-34.18-28.67-1.59-15.22,1.09-29.97,4.37-44.76,2.64-11.93,8.06-22.33,14.89-32.2,1.98.13,2.84-.88,2.8-2.79.04-.31.06-.61.07-.92ZM487.41,78.39c-.01-.39-.21-.6-.59-.65-1.13-2.14-3.22-2.85-5.33-3.27-8.89-1.77-17.04-.45-23.09,6.9-12.24,14.86-17.04,32.16-15.21,51.13.99,10.34,7.56,16.26,17.94,17.66,7.62,1.03,15.28.22,22.92.51,2.36.09,3.2-.89,3.38-3.17,1.37-17.9,3.78-35.72,4.2-53.68.13-5.47-.28-10.98-4.22-15.43Z"/>
      <path class="cls-1" d="M323.26,66.08c-4.77-4.53-10.25-8.15-15.68-11.76-3.12-2.07-3.02-3.75-.46-5.61,4.1-2.98,9.32-4.43,13.57-2.14,12.54,6.75,24.47,4.32,36.55-.71,4.5.39,7.48-3.03,11.18-4.61,1.34-.57.74-2.39-.32-3.42-1.9-1.84-3.58-4.21-5.86-5.32-11.24-5.47-20.91-13.53-32.04-19.16-1.74-.88-4.26-2.38-3.76-4.71.41-1.96,2.97-2.1,4.88-2.78,4.93-1.75,9.67-3.64,15.06-4.01,10.68-.73,19.23,4.92,28.41,8.69,4.41,1.81,8.77,3.58,13.69,3.56,3.6-.02,7.15-.05,10.68,1.56,3.39,1.55,6.56-1.69,10.12-1.52,11.27.53,21.49-3.81,31.92-7.16,9.26-2.97,18.62-5.39,28.46-4.94,3.05.14,6.18,1.21,7.3,4.02,1.36,3.42-.38,6.14-3.54,8.35-6.51,4.55-14.14,6.45-21.33,9.19-11.89,4.54-23.53,9.89-35.67,13.56-5.59,1.69-10.99,4.09-16.76,5.48-4.98,1.2-9.54,4.72-14.9,5.68.22.57.43,1.13.65,1.7,0,0-.06.03-.06.03-2.49-.15-5.06-.49-7.35.67-9.82,4.97-20.54,7.51-30.66,11.62-3.45,1.4-7.6,2.07-9.88,5.68l-.05.03c-4.89.57-9.52-.71-14.16-1.95Z"/>
      <path class="cls-2" d="M561.57,40.88c-9.2,0-16.77-7.52-16.91-16.78-.14-9.63,7.69-17.34,17.47-17.22,9.29.12,16.57,7.6,16.55,17.02-.02,9.64-7.42,16.99-17.12,16.98Z"/>
      <path class="cls-1" d="M301.35,211.77c-.19-5.62,2.88-9.8,6.15-13.89,1.55.14,2.78-.58,4.18-1.17,10.93-4.63,21.75.62,23.2,12.75.65,5.4-1.49,11.09-7.13,14.12-1.04.56-2.23.79-2.2,2.29,0,0-.04.03-.04.03-4.68-.07-9.36-.14-14.04-.21-5.87-2.82-8.87-7.73-10.11-13.91Z"/>
      <path class="cls-1" d="M293.48,201.74c4.87,9.67,2.21,19.42-7.92,24.16-4.85-.48-9.82.83-14.52-2.02-2.87-1.74-3.92-5.45-7.45-6.21,0,0-.02-.03-.02-.03-.02-1.66.08-3.32-.08-4.96-1.01-10.41,7.87-18.59,19.05-16.99,4.48.64,7.23,4.18,10.95,6.06Z"/>
      <path class="cls-2" d="M107.75,228c4.66-.48,9.17-.11,13.24,2.52,6.81,4.41,9.62,11.84,7.33,19.44-2.16,7.19-8.92,11.98-16.65,11.79-7.25-.18-15.75-6.17-16.68-12.77-.89-6.36-.2-12.75,5.48-17.28.2-.2.29-.44.27-.73.85-.09,1.75-.08,2.02-1.17,1.66-.61,3.32-1.21,4.98-1.82Z"/>
    </g>
  </g>
</svg>